M48
;DRILL file {KiCad 4.0.5} date 05/18/17 11:13:05
;FORMAT={-:-/ absolute / inch / decimal}
FMAT,2
INCH,TZ
T1C0.024
T2C0.031
T3C0.032
T4C0.047
%
G90
G05
M72
T1
X6.4Y-4.15
X6.4Y-4.2
X6.4Y-4.25
T2
X6.2Y-3.3
X6.2Y-3.7
X6.3Y-4.8
X6.3Y-5.2
X6.4Y-3.3
X6.4Y-3.7
X6.5Y-4.8
X6.5Y-5.2
T3
X5.05Y-3.55
X5.2Y-3.55
X7.4Y-4.3
X7.55Y-4.3
X8.125Y-4.3
X8.275Y-4.3
T4
X5.6047Y-4.2
X5.9Y-4.2
X6.75Y-4.65
X6.7673Y-3.85
X7.85Y-3.85
X7.8524Y-4.65
T0
M30
